<svg xmlns="http://www.w3.org/2000/svg" xmlns:xlink="http://www.w3.org/1999/xlink" width="995px" height="747px" version="1.1" style="background-color: rgb(255, 255, 255);"><defs><style type="text/css">ul { margin-top: 0px; margin-bottom: 10px } &#xa;ol { margin-top: 0px; margin-bottom: 10px } &#xa;ul { margin-top: 0px; margin-bottom: 10px } &#xa;ol { margin-top: 0px; margin-bottom: 10px } &#xa;ul { margin-top: 0px; margin-bottom: 10px } &#xa;ol { margin-top: 0px; margin-bottom: 10px } &#xa;</style></defs><g transform="translate(0.5,0.5)"><path d="M 251 10 L 464 10 L 464 173 L 251 173 L 251 10 M 261 0 L 474 0 L 464 10 L 251 10 L 261 0 M 474 0 L 474 163 L 464 173 L 464 10" fill="#7acff5" stroke="#000000" stroke-miterlimit="10" pointer-events="none"/><path d="M 251 10 L 464 10 L 464 173 L 251 173 L 251 10 M 261 0 L 474 0 L 464 10 L 251 10 L 261 0 M 474 0 L 474 163 L 464 173 L 464 10" fill="none" stroke="#000000" stroke-miterlimit="10" pointer-events="none"/><g fill="#000000" font-family="Helvetica" font-weight="bold" text-anchor="middle" font-size="12px"><text x="357" y="23.5">&lt;&lt;device&gt;&gt;</text><text x="357" y="37.5">Web Server</text></g><path d="M 259 50 L 451 50 L 451 165 L 259 165 L 259 50 M 269 40 L 461 40 L 451 50 L 259 50 L 269 40 M 461 40 L 461 155 L 451 165 L 451 50" fill="#7acff5" stroke="#000000" stroke-miterlimit="10" pointer-events="none"/><path d="M 259 50 L 451 50 L 451 165 L 259 165 L 259 50 M 269 40 L 461 40 L 451 50 L 259 50 L 269 40 M 461 40 L 461 155 L 451 165 L 451 50" fill="none" stroke="#000000" stroke-miterlimit="10" pointer-events="none"/><g fill="#000000" font-family="Helvetica" font-weight="bold" text-anchor="middle" font-size="12px"><text x="354.5" y="63.5">&lt;&lt;execution environment&gt;&gt;</text><text x="354.5" y="77.5">Application Server</text></g><rect x="286" y="97" width="136" height="40" fill="#7acff5" stroke="#000000" pointer-events="none"/><rect x="286" y="97" width="136" height="40" fill="none" stroke="#000000" pointer-events="none"/><path d="M 407 102 L 417 102" fill="none" stroke="#000000" stroke-miterlimit="10" pointer-events="none"/><path d="M 417 102 L 417 118" fill="none" stroke="#000000" stroke-miterlimit="10" pointer-events="none"/><path d="M 407 118 L 417 118" fill="none" stroke="#000000" stroke-miterlimit="10" pointer-events="none"/><path d="M 407 102 L 407 105" fill="none" stroke="#000000" stroke-miterlimit="10" pointer-events="none"/><rect x="404" y="105" width="7" height="4" fill="none" stroke="#000000" pointer-events="none"/><path d="M 407 109 L 407 111" fill="none" stroke="#000000" stroke-miterlimit="10" pointer-events="none"/><rect x="404" y="111" width="7" height="4" fill="none" stroke="#000000" pointer-events="none"/><path d="M 407 115 L 407 118" fill="none" stroke="#000000" stroke-miterlimit="10" pointer-events="none"/><g fill="#000000" font-family="Helvetica" font-weight="bold" text-anchor="middle" font-size="12px"><text x="344" y="113.5">&lt;&lt;component&gt;&gt;</text><text x="344" y="127.5">Application</text></g><ellipse cx="567" cy="117" rx="10" ry="10" fill="#7acff5" stroke="#000000" pointer-events="none"/><ellipse cx="567" cy="117" rx="10" ry="10" fill="none" stroke="#000000" pointer-events="none"/><g fill="#000000" font-family="Helvetica" font-weight="bold" text-anchor="middle" font-size="12px"><text x="566.5" y="145.5">Session</text></g><path d="M 557 117 L 422 117" fill="none" stroke="#000000" stroke-miterlimit="10" pointer-events="none"/><rect x="675" y="97" width="115" height="40" fill="#7acff5" stroke="#000000" pointer-events="none"/><rect x="675" y="97" width="115" height="40" fill="none" stroke="#000000" pointer-events="none"/><path d="M 775 102 L 781 102" fill="none" stroke="#000000" stroke-miterlimit="10" pointer-events="none"/><path d="M 781 102 L 785 106" fill="none" stroke="#000000" stroke-miterlimit="10" pointer-events="none"/><path d="M 785 106 L 785 114" fill="none" stroke="#000000" stroke-miterlimit="10" pointer-events="none"/><path d="M 785 114 L 775 114" fill="none" stroke="#000000" stroke-miterlimit="10" pointer-events="none"/><path d="M 775 114 L 775 102" fill="none" stroke="#000000" stroke-miterlimit="10" pointer-events="none"/><path d="M 781 102 L 781 106" fill="none" stroke="#000000" stroke-miterlimit="10" pointer-events="none"/><path d="M 781 106 L 785 106" fill="none" stroke="#000000" stroke-miterlimit="10" pointer-events="none"/><g fill="#000000" font-family="Helvetica" font-weight="bold" text-anchor="middle" font-size="12px"><text x="722.5" y="113.5">&lt;&lt;artifact&gt;&gt;</text><text x="722.5" y="127.5">GUI</text></g><path d="M 577 117 L 672.76 117" fill="none" stroke="#000000" stroke-miterlimit="10" stroke-dasharray="5" pointer-events="none"/><path d="M 661.88 123 L 673.88 117 L 661.88 111" fill="none" stroke="#000000" stroke-miterlimit="10" pointer-events="none"/><rect x="44" y="117" width="126" height="40" fill="#7acff5" stroke="#000000" pointer-events="none"/><rect x="44" y="117" width="126" height="40" fill="none" stroke="#000000" pointer-events="none"/><path d="M 155 122 L 161 122" fill="none" stroke="#000000" stroke-miterlimit="10" pointer-events="none"/><path d="M 161 122 L 165 126" fill="none" stroke="#000000" stroke-miterlimit="10" pointer-events="none"/><path d="M 165 126 L 165 134" fill="none" stroke="#000000" stroke-miterlimit="10" pointer-events="none"/><path d="M 165 134 L 155 134" fill="none" stroke="#000000" stroke-miterlimit="10" pointer-events="none"/><path d="M 155 134 L 155 122" fill="none" stroke="#000000" stroke-miterlimit="10" pointer-events="none"/><path d="M 161 122 L 161 126" fill="none" stroke="#000000" stroke-miterlimit="10" pointer-events="none"/><path d="M 161 126 L 165 126" fill="none" stroke="#000000" stroke-miterlimit="10" pointer-events="none"/><g fill="#000000" font-family="Helvetica" font-weight="bold" text-anchor="middle" font-size="12px"><text x="97" y="133.5">&lt;&lt;artifact&gt;&gt;</text><text x="97" y="147.5">Web Application</text></g><path d="M 170 137 L 248.77 130.19" fill="none" stroke="#000000" stroke-miterlimit="10" stroke-dasharray="5" pointer-events="none"/><path d="M 238.45 137.11 L 249.89 130.1 L 237.41 125.15" fill="none" stroke="#000000" stroke-miterlimit="10" pointer-events="none"/><rect x="44" y="204" width="145" height="44" fill="#7acff5" stroke="#000000" pointer-events="none"/><path d="M 44 238 L 189 238" fill="none" stroke="#000000" stroke-miterlimit="10" pointer-events="none"/><g fill="#000000" font-family="Helvetica" font-weight="bold" text-anchor="middle" font-size="12px"><text x="116" y="218.5">&lt;&lt;deployment spec&gt;&gt;</text><text x="116" y="232.5">Specification</text></g><path d="M 114.15 204 L 109.37 159.22" fill="none" stroke="#000000" stroke-miterlimit="10" stroke-dasharray="5" pointer-events="none"/><path d="M 116.49 169.41 L 109.25 158.11 L 104.56 170.68" fill="none" stroke="#000000" stroke-miterlimit="10" pointer-events="none"/><rect x="510" y="411" width="482" height="333" fill="#7acff5" stroke="#000000" pointer-events="none"/><rect x="510" y="411" width="482" height="333" fill="none" stroke="#000000" pointer-events="none"/><path d="M 977 416 L 987 416" fill="none" stroke="#000000" stroke-miterlimit="10" pointer-events="none"/><path d="M 987 416 L 987 432" fill="none" stroke="#000000" stroke-miterlimit="10" pointer-events="none"/><path d="M 977 432 L 987 432" fill="none" stroke="#000000" stroke-miterlimit="10" pointer-events="none"/><path d="M 977 416 L 977 419" fill="none" stroke="#000000" stroke-miterlimit="10" pointer-events="none"/><rect x="974" y="419" width="7" height="4" fill="none" stroke="#000000" pointer-events="none"/><path d="M 977 423 L 977 425" fill="none" stroke="#000000" stroke-miterlimit="10" pointer-events="none"/><rect x="974" y="425" width="7" height="4" fill="none" stroke="#000000" pointer-events="none"/><path d="M 977 429 L 977 432" fill="none" stroke="#000000" stroke-miterlimit="10" pointer-events="none"/><g fill="#000000" font-family="Helvetica" font-weight="bold" text-anchor="middle" font-size="12px"><text x="741" y="427.5">&lt;&lt;component&gt;&gt;</text><text x="741" y="441.5">Application</text></g><rect x="806.5" y="655.5" width="159" height="47" fill="#7acff5" stroke="#000000" pointer-events="none"/><rect x="806.5" y="655.5" width="159" height="47" fill="none" stroke="#000000" pointer-events="none"/><path d="M 950.5 660.5 L 960.5 660.5" fill="none" stroke="#000000" stroke-miterlimit="10" pointer-events="none"/><path d="M 960.5 660.5 L 960.5 676.5" fill="none" stroke="#000000" stroke-miterlimit="10" pointer-events="none"/><path d="M 950.5 676.5 L 960.5 676.5" fill="none" stroke="#000000" stroke-miterlimit="10" pointer-events="none"/><path d="M 950.5 660.5 L 950.5 663.5" fill="none" stroke="#000000" stroke-miterlimit="10" pointer-events="none"/><rect x="947.5" y="663.5" width="7" height="4" fill="none" stroke="#000000" pointer-events="none"/><path d="M 950.5 667.5 L 950.5 669.5" fill="none" stroke="#000000" stroke-miterlimit="10" pointer-events="none"/><rect x="947.5" y="669.5" width="7" height="4" fill="none" stroke="#000000" pointer-events="none"/><path d="M 950.5 673.5 L 950.5 676.5" fill="none" stroke="#000000" stroke-miterlimit="10" pointer-events="none"/><g fill="#000000" font-family="Helvetica" font-weight="bold" text-anchor="middle" font-size="12px"><text x="876" y="672">&lt;&lt;component&gt;&gt;</text><text x="876" y="686">Database</text></g><rect x="756.5" y="669" width="20" height="20" fill-opacity="0" fill="#7acff5" stroke="none" pointer-events="none"/><rect x="756.5" y="669" width="20" height="20" fill-opacity="0" fill="#7acff5" stroke="none" pointer-events="none"/><g fill="#000000" font-family="Helvetica" font-weight="bold" text-anchor="middle" font-size="12px"><text x="766" y="707.5">Interface</text></g><path d="M 781.5 679 L 807 679" fill="none" stroke="#000000" stroke-miterlimit="10" pointer-events="none"/><path d="M 766.5 664 C 774.78 664 781.5 670.72 781.5 679 C 781.5 687.28 774.78 694 766.5 694" fill="none" stroke="#000000" stroke-miterlimit="10" pointer-events="none"/><ellipse cx="767" cy="679" rx="10" ry="10" fill="#7acff5" stroke="#000000" pointer-events="none"/><ellipse cx="767" cy="679" rx="10" ry="10" fill="none" stroke="#000000" pointer-events="none"/><g fill="#000000" font-family="Helvetica" font-weight="bold" text-anchor="middle" font-size="12px"><text x="766" y="707.5">Interface</text></g><rect x="608.5" y="659" width="124" height="40" fill="#7acff5" stroke="#000000" pointer-events="none"/><rect x="608.5" y="659" width="124" height="40" fill="none" stroke="#000000" pointer-events="none"/><path d="M 717.5 664 L 727.5 664" fill="none" stroke="#000000" stroke-miterlimit="10" pointer-events="none"/><path d="M 727.5 664 L 727.5 680" fill="none" stroke="#000000" stroke-miterlimit="10" pointer-events="none"/><path d="M 717.5 680 L 727.5 680" fill="none" stroke="#000000" stroke-miterlimit="10" pointer-events="none"/><path d="M 717.5 664 L 717.5 667" fill="none" stroke="#000000" stroke-miterlimit="10" pointer-events="none"/><rect x="714.5" y="667" width="7" height="4" fill="none" stroke="#000000" pointer-events="none"/><path d="M 717.5 671 L 717.5 673" fill="none" stroke="#000000" stroke-miterlimit="10" pointer-events="none"/><rect x="714.5" y="673" width="7" height="4" fill="none" stroke="#000000" pointer-events="none"/><path d="M 717.5 677 L 717.5 680" fill="none" stroke="#000000" stroke-miterlimit="10" pointer-events="none"/><g fill="#000000" font-family="Helvetica" font-weight="bold" text-anchor="middle" font-size="12px"><text x="660.5" y="675.5">&lt;&lt;component&gt;&gt;</text><text x="660.5" y="689.5">DBcontroler</text></g><path d="M 757 679 L 734.74 679" fill="none" stroke="#000000" stroke-miterlimit="10" stroke-dasharray="5" pointer-events="none"/><path d="M 745.62 673 L 733.62 679 L 745.62 685" fill="none" stroke="#000000" stroke-miterlimit="10" pointer-events="none"/><rect x="608.5" y="557.5" width="136" height="40" fill="#7acff5" stroke="#000000" pointer-events="none"/><rect x="608.5" y="557.5" width="136" height="40" fill="none" stroke="#000000" pointer-events="none"/><path d="M 729.5 562.5 L 739.5 562.5" fill="none" stroke="#000000" stroke-miterlimit="10" pointer-events="none"/><path d="M 739.5 562.5 L 739.5 578.5" fill="none" stroke="#000000" stroke-miterlimit="10" pointer-events="none"/><path d="M 729.5 578.5 L 739.5 578.5" fill="none" stroke="#000000" stroke-miterlimit="10" pointer-events="none"/><path d="M 729.5 562.5 L 729.5 565.5" fill="none" stroke="#000000" stroke-miterlimit="10" pointer-events="none"/><rect x="726.5" y="565.5" width="7" height="4" fill="none" stroke="#000000" pointer-events="none"/><path d="M 729.5 569.5 L 729.5 571.5" fill="none" stroke="#000000" stroke-miterlimit="10" pointer-events="none"/><rect x="726.5" y="571.5" width="7" height="4" fill="none" stroke="#000000" pointer-events="none"/><path d="M 729.5 575.5 L 729.5 578.5" fill="none" stroke="#000000" stroke-miterlimit="10" pointer-events="none"/><g fill="#000000" font-family="Helvetica" font-weight="bold" text-anchor="middle" font-size="12px"><text x="666.5" y="574">&lt;&lt;component&gt;&gt;</text><text x="666.5" y="588">Server</text></g><rect x="665" y="612" width="20" height="21" fill-opacity="0" fill="#7acff5" stroke="none" pointer-events="none"/><rect x="665" y="612" width="20" height="21" fill-opacity="0" fill="#7acff5" stroke="none" pointer-events="none"/><g fill="#000000" font-family="Helvetica" font-weight="bold" text-anchor="middle" font-size="12px"><text x="674.5" y="651.5">Interface</text></g><ellipse cx="675" cy="625" rx="8" ry="8" fill="#7acff5" stroke="#000000" pointer-events="none"/><ellipse cx="675" cy="625" rx="8" ry="8" fill="none" stroke="#000000" pointer-events="none"/><g fill="#000000" font-family="Helvetica" font-weight="bold" text-anchor="middle" font-size="12px"><text x="674" y="651.5">Interface</text></g><path d="M 675 607.5 L 675 604.75 Q 675 602 676 602 L 676.5 602 Q 677 602 677 599.75 L 677 597.5" fill="none" stroke="#000000" stroke-miterlimit="10" pointer-events="none"/><path d="M 660 622.5 C 660 614.22 666.72 607.5 675 607.5 C 683.28 607.5 690 614.22 690 622.5" fill="none" stroke="#000000" stroke-miterlimit="10" pointer-events="none"/><path d="M 675 633 L 675 639.5 Q 675 646 673 646 L 672 646 Q 671 646 671 651.38 L 671 656.76" fill="none" stroke="#000000" stroke-miterlimit="10" stroke-dasharray="5" pointer-events="none"/><path d="M 665 645.88 L 671 657.88 L 677 645.88" fill="none" stroke="#000000" stroke-miterlimit="10" pointer-events="none"/><rect x="596" y="468" width="149" height="40" fill="#7acff5" stroke="#000000" pointer-events="none"/><rect x="596" y="468" width="149" height="40" fill="none" stroke="#000000" pointer-events="none"/><path d="M 730 473 L 740 473" fill="none" stroke="#000000" stroke-miterlimit="10" pointer-events="none"/><path d="M 740 473 L 740 489" fill="none" stroke="#000000" stroke-miterlimit="10" pointer-events="none"/><path d="M 730 489 L 740 489" fill="none" stroke="#000000" stroke-miterlimit="10" pointer-events="none"/><path d="M 730 473 L 730 476" fill="none" stroke="#000000" stroke-miterlimit="10" pointer-events="none"/><rect x="727" y="476" width="7" height="4" fill="none" stroke="#000000" pointer-events="none"/><path d="M 730 480 L 730 482" fill="none" stroke="#000000" stroke-miterlimit="10" pointer-events="none"/><rect x="727" y="482" width="7" height="4" fill="none" stroke="#000000" pointer-events="none"/><path d="M 730 486 L 730 489" fill="none" stroke="#000000" stroke-miterlimit="10" pointer-events="none"/><g fill="#000000" font-family="Helvetica" font-weight="bold" text-anchor="middle" font-size="12px"><text x="660.5" y="484.5">&lt;&lt;component&gt;&gt;</text><text x="660.5" y="498.5">Verification Controller</text></g><rect x="504" y="483" width="12" height="12" fill="#7acff5" stroke="#000000" pointer-events="none"/><path d="M 596 488 L 566 488 Q 556 488 556 488.5 L 556 488.75 Q 556 489 546 489 L 516 489" fill="none" stroke="#000000" stroke-miterlimit="10" pointer-events="none"/><path d="M 609 568 L 609 538 Q 609 528 599 528 L 534 528 Q 524 528 524 518 L 524 499 Q 524 489 520 489 L 516 489" fill="none" stroke="#000000" stroke-miterlimit="10" pointer-events="none"/><ellipse cx="415" cy="488" rx="10" ry="10" fill="#7acff5" stroke="#000000" pointer-events="none"/><ellipse cx="415" cy="488" rx="10" ry="10" fill="none" stroke="#000000" pointer-events="none"/><g fill="#000000" font-family="Helvetica" font-weight="bold" text-anchor="middle" font-size="12px"><text x="414.5" y="516.5">API</text></g><path d="M 425 488 L 455 488 Q 465 488 465 488.5 L 465 488.75 Q 465 489 475 489 L 504 489" fill="none" stroke="#000000" stroke-miterlimit="10" pointer-events="none"/><rect x="0" y="421" width="259" height="223" fill="#7acff5" stroke="#000000" pointer-events="none"/><rect x="0" y="421" width="259" height="223" fill="none" stroke="#000000" pointer-events="none"/><path d="M 244 426 L 254 426" fill="none" stroke="#000000" stroke-miterlimit="10" pointer-events="none"/><path d="M 254 426 L 254 442" fill="none" stroke="#000000" stroke-miterlimit="10" pointer-events="none"/><path d="M 244 442 L 254 442" fill="none" stroke="#000000" stroke-miterlimit="10" pointer-events="none"/><path d="M 244 426 L 244 429" fill="none" stroke="#000000" stroke-miterlimit="10" pointer-events="none"/><rect x="241" y="429" width="7" height="4" fill="none" stroke="#000000" pointer-events="none"/><path d="M 244 433 L 244 435" fill="none" stroke="#000000" stroke-miterlimit="10" pointer-events="none"/><rect x="241" y="435" width="7" height="4" fill="none" stroke="#000000" pointer-events="none"/><path d="M 244 439 L 244 442" fill="none" stroke="#000000" stroke-miterlimit="10" pointer-events="none"/><g fill="#000000" font-family="Helvetica" font-weight="bold" text-anchor="middle" font-size="12px"><text x="119.5" y="437.5">&lt;&lt;component&gt;&gt;</text><text x="119.5" y="451.5">Client</text></g><rect x="107" y="475" width="136" height="40" fill="#7acff5" stroke="#000000" pointer-events="none"/><rect x="107" y="475" width="136" height="40" fill="none" stroke="#000000" pointer-events="none"/><path d="M 228 480 L 238 480" fill="none" stroke="#000000" stroke-miterlimit="10" pointer-events="none"/><path d="M 238 480 L 238 496" fill="none" stroke="#000000" stroke-miterlimit="10" pointer-events="none"/><path d="M 228 496 L 238 496" fill="none" stroke="#000000" stroke-miterlimit="10" pointer-events="none"/><path d="M 228 480 L 228 483" fill="none" stroke="#000000" stroke-miterlimit="10" pointer-events="none"/><rect x="225" y="483" width="7" height="4" fill="none" stroke="#000000" pointer-events="none"/><path d="M 228 487 L 228 489" fill="none" stroke="#000000" stroke-miterlimit="10" pointer-events="none"/><rect x="225" y="489" width="7" height="4" fill="none" stroke="#000000" pointer-events="none"/><path d="M 228 493 L 228 496" fill="none" stroke="#000000" stroke-miterlimit="10" pointer-events="none"/><g fill="#000000" font-family="Helvetica" font-weight="bold" text-anchor="middle" font-size="12px"><text x="165" y="491.5">&lt;&lt;component&gt;&gt;</text><text x="165" y="505.5">Component</text></g><path d="M 170 137 L 248.77 130.19" fill="none" stroke="#000000" stroke-miterlimit="10" stroke-dasharray="5" pointer-events="none"/><path d="M 238.45 137.11 L 249.89 130.1 L 237.41 125.15" fill="none" stroke="#000000" stroke-miterlimit="10" pointer-events="none"/><path d="M 557 117 L 422 117" fill="none" stroke="#000000" stroke-miterlimit="10" pointer-events="none"/><path d="M 557 117 L 422 117" fill="none" stroke="#000000" stroke-miterlimit="10" pointer-events="none"/><path d="M 577 117 L 672.76 117" fill="none" stroke="#000000" stroke-miterlimit="10" stroke-dasharray="5" pointer-events="none"/><path d="M 661.88 123 L 673.88 117 L 661.88 111" fill="none" stroke="#000000" stroke-miterlimit="10" pointer-events="none"/><path d="M 577 117 L 672.76 117" fill="none" stroke="#000000" stroke-miterlimit="10" stroke-dasharray="5" pointer-events="none"/><path d="M 661.88 123 L 673.88 117 L 661.88 111" fill="none" stroke="#000000" stroke-miterlimit="10" pointer-events="none"/><path d="M 170 137 L 248.77 130.19" fill="none" stroke="#000000" stroke-miterlimit="10" stroke-dasharray="5" pointer-events="none"/><path d="M 238.45 137.11 L 249.89 130.1 L 237.41 125.15" fill="none" stroke="#000000" stroke-miterlimit="10" pointer-events="none"/><path d="M 114.15 204 L 109.37 159.22" fill="none" stroke="#000000" stroke-miterlimit="10" stroke-dasharray="5" pointer-events="none"/><path d="M 116.49 169.41 L 109.25 158.11 L 104.56 170.68" fill="none" stroke="#000000" stroke-miterlimit="10" pointer-events="none"/><path d="M 114.15 204 L 109.37 159.22" fill="none" stroke="#000000" stroke-miterlimit="10" stroke-dasharray="5" pointer-events="none"/><path d="M 116.49 169.41 L 109.25 158.11 L 104.56 170.68" fill="none" stroke="#000000" stroke-miterlimit="10" pointer-events="none"/><path d="M 781.5 679 L 807 679" fill="none" stroke="#000000" stroke-miterlimit="10" pointer-events="none"/><path d="M 766.5 664 C 774.78 664 781.5 670.72 781.5 679 C 781.5 687.28 774.78 694 766.5 694" fill="none" stroke="#000000" stroke-miterlimit="10" pointer-events="none"/><path d="M 781.5 679 L 807 679" fill="none" stroke="#000000" stroke-miterlimit="10" pointer-events="none"/><path d="M 766.5 664 C 774.78 664 781.5 670.72 781.5 679 C 781.5 687.28 774.78 694 766.5 694" fill="none" stroke="#000000" stroke-miterlimit="10" pointer-events="none"/><path d="M 757 679 L 734.74 679" fill="none" stroke="#000000" stroke-miterlimit="10" stroke-dasharray="5" pointer-events="none"/><path d="M 745.62 673 L 733.62 679 L 745.62 685" fill="none" stroke="#000000" stroke-miterlimit="10" pointer-events="none"/><path d="M 757 679 L 734.74 679" fill="none" stroke="#000000" stroke-miterlimit="10" stroke-dasharray="5" pointer-events="none"/><path d="M 745.62 673 L 733.62 679 L 745.62 685" fill="none" stroke="#000000" stroke-miterlimit="10" pointer-events="none"/><path d="M 675 633 L 675 639.5 Q 675 646 673 646 L 672 646 Q 671 646 671 651.38 L 671 656.76" fill="none" stroke="#000000" stroke-miterlimit="10" stroke-dasharray="5" pointer-events="none"/><path d="M 665 645.88 L 671 657.88 L 677 645.88" fill="none" stroke="#000000" stroke-miterlimit="10" pointer-events="none"/><path d="M 675 607.5 L 675 604.75 Q 675 602 676 602 L 676.5 602 Q 677 602 677 599.75 L 677 597.5" fill="none" stroke="#000000" stroke-miterlimit="10" pointer-events="none"/><path d="M 660 622.5 C 660 614.22 666.72 607.5 675 607.5 C 683.28 607.5 690 614.22 690 622.5" fill="none" stroke="#000000" stroke-miterlimit="10" pointer-events="none"/><path d="M 609 568 L 609 538 Q 609 528 599 528 L 534 528 Q 524 528 524 518 L 524 499 Q 524 489 520 489 L 516 489" fill="none" stroke="#000000" stroke-miterlimit="10" pointer-events="none"/><path d="M 675 607.5 L 675 604.75 Q 675 602 676 602 L 676.5 602 Q 677 602 677 599.75 L 677 597.5" fill="none" stroke="#000000" stroke-miterlimit="10" pointer-events="none"/><path d="M 660 622.5 C 660 614.22 666.72 607.5 675 607.5 C 683.28 607.5 690 614.22 690 622.5" fill="none" stroke="#000000" stroke-miterlimit="10" pointer-events="none"/><path d="M 675 633 L 675 639.5 Q 675 646 673 646 L 672 646 Q 671 646 671 651.38 L 671 656.76" fill="none" stroke="#000000" stroke-miterlimit="10" stroke-dasharray="5" pointer-events="none"/><path d="M 665 645.88 L 671 657.88 L 677 645.88" fill="none" stroke="#000000" stroke-miterlimit="10" pointer-events="none"/><path d="M 596 488 L 566 488 Q 556 488 556 488.5 L 556 488.75 Q 556 489 546 489 L 516 489" fill="none" stroke="#000000" stroke-miterlimit="10" pointer-events="none"/><path d="M 596 488 L 566 488 Q 556 488 556 488.5 L 556 488.75 Q 556 489 546 489 L 516 489" fill="none" stroke="#000000" stroke-miterlimit="10" pointer-events="none"/><path d="M 609 568 L 609 538 Q 609 528 599 528 L 534 528 Q 524 528 524 518 L 524 499 Q 524 489 520 489 L 516 489" fill="none" stroke="#000000" stroke-miterlimit="10" pointer-events="none"/><path d="M 425 488 L 455 488 Q 465 488 465 488.5 L 465 488.75 Q 465 489 475 489 L 504 489" fill="none" stroke="#000000" stroke-miterlimit="10" pointer-events="none"/><path d="M 425 488 L 455 488 Q 465 488 465 488.5 L 465 488.75 Q 465 489 475 489 L 504 489" fill="none" stroke="#000000" stroke-miterlimit="10" pointer-events="none"/></g><g fill="#787878" font-family="Arial,Helvetica" font-size="12px"><text x="6" y="15">Visual Paradigm Online Express Edition</text></g><g fill="#787878" font-family="Arial,Helvetica" text-anchor="end" font-size="12px"><text x="989" y="740">Visual Paradigm Online Express Edition</text></g></svg>